<svg width="15.167847" height="14.879974" viewBox="0 0 15.1678 14.88" fill="none" xmlns="http://www.w3.org/2000/svg" xmlns:xlink="http://www.w3.org/1999/xlink">
	<desc>
			Created with Pixso.
	</desc>
	<defs/>
	<path id="Vector" d="M7.58 3.62C5.43 3.62 3.69 5.32 3.69 7.44C3.69 9.55 5.43 11.25 7.58 11.25C9.73 11.25 11.47 9.55 11.47 7.44C11.47 5.32 9.73 3.62 7.58 3.62ZM7.58 9.92C6.19 9.92 5.05 8.8 5.05 7.44C5.05 6.07 6.19 4.95 7.58 4.95C8.97 4.95 10.11 6.07 10.11 7.44C10.11 8.8 8.97 9.92 7.58 9.92ZM12.53 3.46C12.53 3.96 12.13 4.35 11.63 4.35C11.12 4.35 10.72 3.96 10.72 3.46C10.72 2.97 11.13 2.57 11.63 2.57C12.13 2.57 12.53 2.97 12.53 3.46ZM15.11 4.37C15.05 3.18 14.77 2.12 13.88 1.25C13 0.38 11.92 0.11 10.71 0.05C9.46 -0.02 5.7 -0.02 4.45 0.05C3.24 0.1 2.16 0.38 1.27 1.25C0.38 2.12 0.11 3.17 0.05 4.36C-0.02 5.59 -0.02 9.27 0.05 10.5C0.11 11.7 0.38 12.75 1.27 13.62C2.16 14.49 3.24 14.76 4.45 14.82C5.7 14.89 9.46 14.89 10.71 14.82C11.92 14.77 13 14.49 13.88 13.62C14.77 12.75 15.05 11.7 15.11 10.5C15.18 9.27 15.18 5.6 15.11 4.37ZM13.49 11.82C13.23 12.47 12.72 12.97 12.05 13.24C11.05 13.62 8.68 13.53 7.58 13.53C6.48 13.53 4.11 13.62 3.11 13.24C2.45 12.98 1.94 12.48 1.67 11.82C1.27 10.84 1.36 8.52 1.36 7.44C1.36 6.35 1.28 4.03 1.67 3.05C1.93 2.4 2.44 1.9 3.11 1.63C4.11 1.25 6.48 1.34 7.58 1.34C8.68 1.34 11.06 1.25 12.05 1.63C12.71 1.89 13.22 2.39 13.49 3.05C13.89 4.03 13.8 6.35 13.8 7.44C13.8 8.52 13.89 10.84 13.49 11.82Z" fill="#000000" fill-opacity="1.000000" fill-rule="nonzero"/>
</svg>
