<svg width="12.127441" height="16.000000" viewBox="0 0 12.1274 16" fill="none" xmlns="http://www.w3.org/2000/svg" xmlns:xlink="http://www.w3.org/1999/xlink">
	<desc>
			Created with Pixso.
	</desc>
	<defs>
		<clipPath id="clip190_1618">
			<rect rx="0.000000" width="11.127501" height="15.000000" transform="translate(0.500000 0.500000)" fill="white" fill-opacity="0"/>
		</clipPath>
	</defs>
	<rect rx="0.000000" width="11.127501" height="15.000000" transform="translate(0.500000 0.500000)" fill="#FFFFFF" fill-opacity="0"/>
	<g clip-path="url(#clip190_1618)">
		<path d="M6.44 0.2C3.2 0.2 0 2.34 0 5.79C0 8 1.25 9.25 2 9.25C2.32 9.25 2.5 8.38 2.5 8.14C2.5 7.85 1.75 7.23 1.75 6.02C1.75 3.51 3.68 1.73 6.18 1.73C8.33 1.73 9.92 2.94 9.92 5.16C9.92 6.82 9.25 9.93 7.07 9.93C6.29 9.93 5.61 9.37 5.61 8.56C5.61 7.38 6.45 6.24 6.45 5.02C6.45 2.95 3.48 3.32 3.48 5.82C3.48 6.35 3.55 6.93 3.78 7.41C3.35 9.26 2.46 12.03 2.46 13.94C2.46 14.53 2.54 15.11 2.6 15.7C2.71 15.82 2.65 15.81 2.82 15.75C4.41 13.6 4.35 13.17 5.07 10.35C5.46 11.08 6.47 11.48 7.26 11.48C10.62 11.48 12.12 8.24 12.12 5.33C12.12 2.22 9.41 0.2 6.44 0.2Z" fill="#000000" fill-opacity="1.000000" fill-rule="nonzero"/>
	</g>
</svg>
