<svg width="16.169922" height="12.994904" viewBox="0 0 16.1699 12.9949" fill="none" xmlns="http://www.w3.org/2000/svg" xmlns:xlink="http://www.w3.org/1999/xlink">
	<desc>
			Created with Pixso.
	</desc>
	<defs/>
	<path id="Vector" d="M14.5 3.23C14.51 3.38 14.51 3.52 14.51 3.66C14.51 7.99 11.18 12.99 5.08 12.99C3.21 12.99 1.46 12.45 0 11.52C0.26 11.55 0.52 11.56 0.8 11.56C2.34 11.56 3.77 11.04 4.91 10.16C3.45 10.13 2.23 9.18 1.81 7.88C2.02 7.91 2.22 7.93 2.44 7.93C2.73 7.93 3.03 7.89 3.31 7.82C1.79 7.52 0.65 6.2 0.65 4.6L0.65 4.56C1.09 4.81 1.61 4.96 2.15 4.98C1.26 4.39 0.67 3.39 0.67 2.25C0.67 1.64 0.84 1.08 1.12 0.59C2.76 2.58 5.21 3.88 7.96 4.03C7.91 3.78 7.87 3.53 7.87 3.27C7.87 1.47 9.35 0 11.19 0C12.14 0 13 0.39 13.61 1.03C14.36 0.89 15.08 0.61 15.71 0.24C15.47 1 14.94 1.64 14.26 2.05C14.92 1.97 15.57 1.79 16.16 1.54C15.71 2.19 15.15 2.77 14.5 3.23Z" fill="#000000" fill-opacity="1.000000" fill-rule="nonzero"/>
</svg>
